HIERARCHY
ROOT hips
{
	OFFSET 0.000000 104.274902 0.000000
	CHANNELS 6 Xposition Yposition Zposition Xrotation Yrotation Zrotation
	JOINT spine
	{
		OFFSET 0.000000 10.181549 0.131524
		CHANNELS 6 Xposition Yposition Zposition Xrotation Yrotation Zrotation
		JOINT chest
		{
			OFFSET 0.000000 9.893990 -1.470706
			CHANNELS 3 Xrotation Yrotation Zrotation
			JOINT upperChest
			{
				OFFSET 0.000000 9.220787 -1.370637
				CHANNELS 3 Xrotation Yrotation Zrotation
				JOINT neck
				{
					OFFSET 0.000000 16.740372 -2.049022
					CHANNELS 6 Xposition Yposition Zposition Xrotation Yrotation Zrotation
					JOINT head
					{
						OFFSET 0.000000 9.617859 1.684976
						CHANNELS 6 Xposition Yposition Zposition Xrotation Yrotation Zrotation
						JOINT headEnd
						{
							OFFSET 0.000000 22.037384 7.501072
							CHANNELS 6 Xposition Yposition Zposition Xrotation Yrotation Zrotation
							End Site
							{
								OFFSET 0.000000 23.106567 -2.828246
							}
						}
					}
				}
				JOINT rightShoulder
				{
					OFFSET -4.570000 11.014877 -2.160840
					CHANNELS 6 Xposition Yposition Zposition Xrotation Yrotation Zrotation
					JOINT rightUpperArm
					{
						OFFSET -10.592867 -0.524796 -2.232105
						CHANNELS 3 Xrotation Yrotation Zrotation
						JOINT rightLowerArm
						{
							OFFSET -27.841497 0.000000 -0.000002
							CHANNELS 3 Xrotation Yrotation Zrotation
							JOINT rightHand
							{
								OFFSET -28.328812 0.000000 -0.000001
								CHANNELS 3 Xrotation Yrotation Zrotation
								JOINT rightThumbProximal
								{
									OFFSET -2.464798 -1.573990 2.681911
									CHANNELS 6 Xposition Yposition Zposition Xrotation Yrotation Zrotation
									JOINT rightThumbIntermediate
									{
										OFFSET -3.244781 -1.873383 1.873376
										CHANNELS 3 Xrotation Yrotation Zrotation
										JOINT rightThumbDistal
										{
											OFFSET -2.646263 -1.527817 1.527818
											CHANNELS 6 Xposition Yposition Zposition Xrotation Yrotation Zrotation
											JOINT rightHandThumb4
											{
												OFFSET -1.994591 -1.151581 1.151575
												CHANNELS 6 Xposition Yposition Zposition Xrotation Yrotation Zrotation
												End Site
												{
													OFFSET -1.860176 -1.142715 1.365483
												}
											}
										}
									}
								}
								JOINT rightIndexProximal
								{
									OFFSET -9.108299 -0.517883 2.259803
									CHANNELS 6 Xposition Yposition Zposition Xrotation Yrotation Zrotation
									JOINT rightIndexIntermediate
									{
										OFFSET -3.699997 0.000000 0.000000
										CHANNELS 3 Xrotation Yrotation Zrotation
										JOINT rightIndexDistal
										{
											OFFSET -2.850006 0.000000 0.000000
											CHANNELS 3 Xrotation Yrotation Zrotation
											JOINT rightHandIndex4
											{
												OFFSET -2.772194 0.000000 0.000000
												CHANNELS 3 Xrotation Yrotation Zrotation
												End Site
												{
													OFFSET -2.772202 0.000000 -0.000484
												}
											}
										}
									}
								}
								JOINT rightMiddleProximal
								{
									OFFSET -9.532501 0.000000 -0.000000
									CHANNELS 6 Xposition Yposition Zposition Xrotation Yrotation Zrotation
									JOINT rightMiddleIntermediate
									{
										OFFSET -3.699997 0.000000 0.000000
										CHANNELS 3 Xrotation Yrotation Zrotation
										JOINT rightMiddleDistal
										{
											OFFSET -2.949997 0.000000 0.000000
											CHANNELS 3 Xrotation Yrotation Zrotation
											JOINT rightHandMiddle4
											{
												OFFSET -2.946594 0.000000 0.000000
												CHANNELS 3 Xrotation Yrotation Zrotation
												End Site
												{
													OFFSET -2.946602 0.000000 -0.000982
												}
											}
										}
									}
								}
								JOINT rightRingProximal
								{
									OFFSET -9.103600 -0.043106 -1.865100
									CHANNELS 6 Xposition Yposition Zposition Xrotation Yrotation Zrotation
									JOINT rightRingIntermediate
									{
										OFFSET -3.379303 0.000000 0.000000
										CHANNELS 3 Xrotation Yrotation Zrotation
										JOINT rightRingDistal
										{
											OFFSET -2.889694 0.000000 0.000000
											CHANNELS 3 Xrotation Yrotation Zrotation
											JOINT rightHandRing4
											{
												OFFSET -2.638802 0.000000 0.000000
												CHANNELS 3 Xrotation Yrotation Zrotation
												End Site
												{
													OFFSET -2.638802 0.000000 0.004218
												}
											}
										}
									}
								}
								JOINT rightLittleProximal
								{
									OFFSET -8.076698 -0.486725 -3.806299
									CHANNELS 6 Xposition Yposition Zposition Xrotation Yrotation Zrotation
									JOINT rightLittleIntermediate
									{
										OFFSET -3.600006 0.000000 0.000000
										CHANNELS 3 Xrotation Yrotation Zrotation
										JOINT rightLittleDistal
										{
											OFFSET -2.099998 0.000000 0.000000
											CHANNELS 3 Xrotation Yrotation Zrotation
											JOINT rightHandPinky4
											{
												OFFSET -2.115791 0.000000 0.000000
												CHANNELS 3 Xrotation Yrotation Zrotation
												End Site
												{
													OFFSET -2.115799 0.000000 0.000174
												}
											}
										}
									}
								}
							}
						}
					}
				}
				JOINT leftShoulder
				{
					OFFSET 4.570400 11.014679 -2.160816
					CHANNELS 6 Xposition Yposition Zposition Xrotation Yrotation Zrotation
					JOINT leftUpperArm
					{
						OFFSET 10.592373 -0.524597 -2.232116
						CHANNELS 3 Xrotation Yrotation Zrotation
						JOINT leftLowerArm
						{
							OFFSET 27.841488 0.000000 0.000001
							CHANNELS 3 Xrotation Yrotation Zrotation
							JOINT leftHand
							{
								OFFSET 28.328808 0.000000 -0.000000
								CHANNELS 3 Xrotation Yrotation Zrotation
								JOINT leftThumbProximal
								{
									OFFSET 2.466103 -1.576202 2.681698
									CHANNELS 6 Xposition Yposition Zposition Xrotation Yrotation Zrotation
									JOINT leftThumbIntermediate
									{
										OFFSET 3.243317 -1.872528 1.872530
										CHANNELS 3 Xrotation Yrotation Zrotation
										JOINT leftThumbDistal
										{
											OFFSET 2.647881 -1.528763 1.528754
											CHANNELS 6 Xposition Yposition Zposition Xrotation Yrotation Zrotation
											JOINT leftHandThumb4
											{
												OFFSET 1.998924 -1.154083 1.154080
												CHANNELS 6 Xposition Yposition Zposition Xrotation Yrotation Zrotation
												End Site
												{
													OFFSET 1.884041 -1.149155 1.337651
												}
											}
										}
									}
								}
								JOINT leftIndexProximal
								{
									OFFSET 9.109299 -0.518005 2.259900
									CHANNELS 6 Xposition Yposition Zposition Xrotation Yrotation Zrotation
									JOINT leftIndexIntermediate
									{
										OFFSET 3.699997 0.000000 0.000000
										CHANNELS 3 Xrotation Yrotation Zrotation
										JOINT leftIndexDistal
										{
											OFFSET 2.850006 0.000000 0.000000
											CHANNELS 3 Xrotation Yrotation Zrotation
											JOINT leftHandIndex4
											{
												OFFSET 2.774895 0.000000 0.000000
												CHANNELS 3 Xrotation Yrotation Zrotation
												End Site
												{
													OFFSET 2.774902 0.000000 -0.000072
												}
											}
										}
									}
								}
								JOINT leftMiddleProximal
								{
									OFFSET 9.533401 0.000000 0.000000
									CHANNELS 6 Xposition Yposition Zposition Xrotation Yrotation Zrotation
									JOINT leftMiddleIntermediate
									{
										OFFSET 3.699997 0.000000 0.000000
										CHANNELS 3 Xrotation Yrotation Zrotation
										JOINT leftMiddleDistal
										{
											OFFSET 2.949997 0.000000 0.000000
											CHANNELS 3 Xrotation Yrotation Zrotation
											JOINT leftHandMiddle4
											{
												OFFSET 2.952896 0.000000 0.000000
												CHANNELS 3 Xrotation Yrotation Zrotation
												End Site
												{
													OFFSET 2.952904 0.000000 0.000165
												}
											}
										}
									}
								}
								JOINT leftRingProximal
								{
									OFFSET 9.104500 -0.042999 -1.865101
									CHANNELS 6 Xposition Yposition Zposition Xrotation Yrotation Zrotation
									JOINT leftRingIntermediate
									{
										OFFSET 3.149994 0.000000 0.000000
										CHANNELS 3 Xrotation Yrotation Zrotation
										JOINT leftRingDistal
										{
											OFFSET 2.950005 0.000000 0.000000
											CHANNELS 3 Xrotation Yrotation Zrotation
											JOINT leftHandRing4
											{
												OFFSET 2.644302 0.000000 0.000000
												CHANNELS 3 Xrotation Yrotation Zrotation
												End Site
												{
													OFFSET 2.644302 0.000000 0.000083
												}
											}
										}
									}
								}
								JOINT leftLittleProximal
								{
									OFFSET 8.077805 -0.486893 -3.806302
									CHANNELS 6 Xposition Yposition Zposition Xrotation Yrotation Zrotation
									JOINT leftLittleIntermediate
									{
										OFFSET 3.600006 0.000000 0.000000
										CHANNELS 3 Xrotation Yrotation Zrotation
										JOINT leftLittleDistal
										{
											OFFSET 2.099998 0.000000 0.000000
											CHANNELS 3 Xrotation Yrotation Zrotation
											JOINT leftHandPinky4
											{
												OFFSET 2.125496 0.000000 0.000000
												CHANNELS 3 Xrotation Yrotation Zrotation
												End Site
												{
													OFFSET 2.125504 0.000000 -0.001254
												}
											}
										}
									}
								}
							}
						}
					}
				}
			}
		}
	}
	JOINT rightUpperLeg
	{
		OFFSET -8.207800 -6.751701 -1.599544
		CHANNELS 6 Xposition Yposition Zposition Xrotation Yrotation Zrotation
		JOINT rightLowerLeg
		{
			OFFSET 0.000004 -44.370152 0.345934
			CHANNELS 3 Xrotation Yrotation Zrotation
			JOINT rightFoot
			{
				OFFSET 0.000004 -44.423664 -3.043535
				CHANNELS 3 Xrotation Yrotation Zrotation
				JOINT rightToes
				{
					OFFSET 0.000001 -8.728691 10.710592
					CHANNELS 3 Xrotation Yrotation Zrotation
					JOINT rightToesEnd
					{
						OFFSET 0.000000 -0.000665 9.278101
						CHANNELS 3 Xrotation Yrotation Zrotation
						End Site
						{
							OFFSET 0.000000 -0.000665 9.278103
						}
					}
				}
			}
		}
	}
	JOINT leftUpperLeg
	{
		OFFSET 8.207800 -6.751701 -1.599544
		CHANNELS 6 Xposition Yposition Zposition Xrotation Yrotation Zrotation
		JOINT leftLowerLeg
		{
			OFFSET 0.000004 -44.370037 0.346940
			CHANNELS 3 Xrotation Yrotation Zrotation
			JOINT leftFoot
			{
				OFFSET 0.000004 -44.423611 -3.044388
				CHANNELS 3 Xrotation Yrotation Zrotation
				JOINT leftToes
				{
					OFFSET 0.000001 -8.728690 10.710592
					CHANNELS 3 Xrotation Yrotation Zrotation
					JOINT leftToesEnd
					{
						OFFSET 0.000000 -0.000680 9.278101
						CHANNELS 3 Xrotation Yrotation Zrotation
						End Site
						{
							OFFSET 0.000000 -0.000680 9.278101
						}
					}
				}
			}
		}
	}
}
MOTION
Frames: 4
Frame Time: 0.033333
0.478526 101.631035 1.555279 -0.893323 1.577710 -5.358921 0.000001 10.181554 0.131523 1.298034 -1.197520 3.016608 0.728742 0.264196 5.944685 0.710789 0.781492 5.851999 0.000000 16.740379 -2.049022 1.045307 -0.304693 -2.163988 -0.000000 9.617867 1.684973 1.584930 0.544179 -8.140494 -0.000001 22.037369 7.501070 -0.000000 -0.000000 -0.000000 -4.570001 11.014891 -2.160842 4.508130 3.324375 5.471590 -1.219692 0.655843 67.345412 -0.000016 17.736782 0.000012 -11.193106 -9.123279 10.139271 -2.464781 -1.573991 2.681911 18.491284 0.461456 -10.916092 1.284035 -32.757604 3.089032 -2.646264 -1.527813 1.527821 2.008730 -8.430479 1.114694 -1.994587 -1.151583 1.151577 -0.000000 -0.000005 0.000001 -9.108296 -0.517872 2.259801 0.339560 -4.671354 7.844285 0.387039 -2.823576 20.566249 -0.193133 -0.216342 13.843931 0.000000 -0.000000 0.000002 -9.532495 -0.000003 -0.000001 0.912575 -8.769263 15.831745 0.919083 -3.991132 33.400421 0.216471 -1.688827 15.898052 -0.000000 -0.000000 0.000001 -9.103605 -0.043104 -1.865104 2.555821 -11.673032 26.909202 1.710648 -3.886770 40.215471 -0.157962 0.035272 17.815341 -0.000001 -0.000000 -0.000000 -8.076672 -0.486727 -3.806300 5.576074 -16.029165 36.940651 1.378683 -4.077640 45.645615 -0.727745 -0.247543 22.122733 -0.000001 -0.000000 -0.000003 4.570404 11.014708 -2.160816 3.582358 -13.764043 -5.044481 4.032789 3.514265 -83.678341 0.000001 -14.506751 0.000011 -27.592620 3.698771 -9.416209 2.466086 -1.576221 2.681692 18.491375 -0.461335 10.916044 1.284026 32.757608 -3.089000 2.647877 -1.528759 1.528749 2.117140 9.311173 -0.358621 1.998940 -1.154074 1.154081 0.000002 0.000001 -0.000000 9.109285 -0.518013 2.259899 0.339556 4.671361 -7.844270 0.387014 2.823615 -20.566222 0.034612 0.816850 -10.169817 -0.000001 -0.000001 0.000000 9.533392 0.000002 -0.000001 0.912558 8.769288 -15.831726 0.919035 3.991191 -33.400411 0.170563 1.488906 -12.264405 0.000000 -0.000002 -0.000000 9.104490 -0.042988 -1.865102 2.555784 11.673080 -26.909187 1.710622 3.886851 -40.215471 0.544833 1.835103 -19.344146 0.000001 0.000001 0.000000 8.077806 -0.486889 -3.806299 5.576030 16.029235 -36.940600 1.378649 4.077729 -45.645628 0.486565 2.853416 -20.524717 0.000001 0.000001 -0.000001 -8.207799 -6.751718 -1.599544 -1.602718 -4.966562 10.553960 12.443634 -5.083599 3.268284 -9.844255 1.009917 -7.756675 -0.548652 -0.000001 0.000003 -0.000000 -0.000000 -0.000000 8.207798 -6.751699 -1.599545 -19.550768 10.796473 15.932613 22.035645 9.531401 2.338587 -1.471904 3.333067 -8.784886 -0.441967 -0.000000 -0.000000 -0.000000 0.000002 0.000000 
0.791721 101.684303 1.351384 -1.180787 1.441220 -5.229413 0.000000 10.181547 0.131523 1.453939 -1.332585 2.944018 0.794516 0.235283 5.931271 0.776544 0.751723 5.839184 -0.000000 16.740358 -2.049021 0.889981 -0.340857 -2.138193 -0.000001 9.617867 1.684975 1.133666 0.404117 -8.224244 0.000000 22.037369 7.501073 -0.000000 -0.000000 0.000000 -4.569999 11.014853 -2.160841 4.394128 4.082674 7.029173 -0.234329 3.590064 65.261180 -0.000015 17.586325 0.000021 -10.940851 -7.427805 11.282272 -2.464798 -1.574004 2.681910 18.491286 0.461456 -10.916105 1.284044 -32.757615 3.089039 -2.646260 -1.527820 1.527817 2.008721 -8.430473 1.114718 -1.994601 -1.151581 1.151575 0.000003 0.000000 0.000001 -9.108304 -0.517884 2.259802 0.339567 -4.671352 7.844266 0.387030 -2.823575 20.566248 -0.193127 -0.216346 13.843943 0.000000 -0.000000 0.000003 -9.532507 -0.000000 -0.000000 0.912583 -8.769264 15.831735 0.919070 -3.991128 33.400428 0.216475 -1.688836 15.898063 -0.000000 -0.000000 -0.000000 -9.103601 -0.043109 -1.865101 2.555809 -11.673027 26.909185 1.710655 -3.886777 40.215461 -0.157953 0.035275 17.815343 -0.000000 -0.000000 -0.000000 -8.076682 -0.486716 -3.806300 5.576070 -16.029166 36.940634 1.378691 -4.077642 45.645628 -0.727747 -0.247547 22.122728 0.000000 0.000001 0.000000 4.570402 11.014686 -2.160815 3.386909 -14.541428 -6.059139 5.039689 0.192581 -80.959858 -0.000000 -17.010834 -0.000008 -26.372330 0.413005 -9.810126 2.466089 -1.576197 2.681694 18.491380 -0.461328 10.916047 1.284027 32.757604 -3.088995 2.647889 -1.528751 1.528752 2.117149 9.311158 -0.358633 1.998931 -1.154082 1.154078 -0.000001 -0.000003 0.000003 9.109291 -0.518013 2.259899 0.350680 4.748032 -8.609330 0.413865 2.893734 -21.310542 0.044505 0.883682 -10.835818 0.000001 0.000000 -0.000000 9.533402 0.000005 -0.000003 0.964483 8.861588 -16.601560 0.961854 4.057730 -34.193816 0.186949 1.553405 -12.930713 -0.000000 0.000000 -0.000001 9.104492 -0.043010 -1.865105 2.622551 11.680481 -27.687123 1.769328 3.942957 -41.030125 0.576452 1.901994 -20.090122 0.000001 -0.000000 -0.000000 8.077797 -0.486887 -3.806300 5.624136 16.089837 -37.712900 1.434296 4.141146 -46.485759 0.517804 2.921722 -21.271472 -0.000002 0.000000 0.000000 -8.207800 -6.751709 -1.599544 -1.602193 -4.892544 10.194200 12.708529 -4.873887 3.283590 -9.826842 0.858370 -7.592255 -0.592866 -0.000006 -0.000002 -0.000000 0.000001 0.000000 8.207795 -6.751693 -1.599543 -19.164256 10.805555 15.500544 21.864684 9.851453 2.465349 -1.398546 3.327056 -8.645141 -0.460957 -0.000009 -0.000001 0.000000 -0.000000 0.000000 
1.160212 101.729591 1.106472 -1.513474 1.405536 -5.103138 0.000000 10.181556 0.131524 1.712749 -1.371754 2.891937 0.902437 0.230198 5.918853 0.884558 0.745466 5.827212 -0.000002 16.740358 -2.049019 0.653533 -0.407667 -2.110207 0.000001 9.617853 1.684975 0.510712 0.131738 -8.258001 0.000000 22.037354 7.501076 -0.000000 -0.000000 0.000000 -4.569999 11.014870 -2.160839 4.302025 4.983969 8.173004 2.191092 9.164538 61.835485 0.000004 18.303058 -0.000025 -12.081294 -7.417357 15.925735 -2.464791 -1.573985 2.681909 18.491287 0.461458 -10.916083 1.284027 -32.757611 3.089008 -2.646276 -1.527801 1.527815 2.008704 -8.430479 1.114702 -1.994590 -1.151571 1.151576 0.000000 -0.000003 -0.000000 -9.108298 -0.517879 2.259803 0.339550 -4.671348 7.844277 0.387037 -2.823585 20.566196 -0.193121 -0.216339 13.843938 0.000001 0.000000 0.000006 -9.532499 0.000012 0.000002 0.912573 -8.769259 15.831740 0.919072 -3.991129 33.400428 0.216473 -1.688825 15.898059 -0.000000 0.000000 0.000002 -9.103594 -0.043104 -1.865103 2.555819 -11.673028 26.909200 1.710644 -3.886771 40.215474 -0.157968 0.035282 17.815341 -0.000000 -0.000000 0.000000 -8.076689 -0.486725 -3.806297 5.576062 -16.029173 36.940631 1.378690 -4.077628 45.645628 -0.727747 -0.247557 22.122744 0.000001 -0.000001 0.000002 4.570402 11.014683 -2.160813 3.187924 -15.568358 -6.781334 5.632256 -3.901318 -78.280177 -0.000011 -20.863441 -0.000005 -26.510334 -2.635437 -11.372684 2.466097 -1.576200 2.681693 18.491371 -0.461335 10.916061 1.284018 32.757618 -3.088999 2.647887 -1.528777 1.528752 2.117145 9.311160 -0.358610 1.998917 -1.154091 1.154074 -0.000001 0.000001 -0.000000 9.109297 -0.518013 2.259897 0.386702 4.959034 -10.723695 0.492893 3.085780 -23.369532 0.076012 1.068619 -12.685523 0.000000 0.000000 0.000006 9.533388 0.000001 -0.000004 1.114965 9.108827 -18.730469 1.084766 4.238218 -36.384148 0.236446 1.731535 -14.781436 -0.000000 -0.000000 -0.000001 9.104496 -0.043006 -1.865102 2.805244 11.698624 -29.836018 1.935364 4.093299 -43.277363 0.668390 2.084736 -22.153406 -0.000000 0.000001 0.000001 8.077791 -0.486887 -3.806309 5.761478 16.254039 -39.848809 1.592338 4.311545 -48.800715 0.608812 3.108419 -23.336999 0.000000 0.000001 -0.000001 -8.207799 -6.751708 -1.599544 -1.637842 -4.847602 9.809935 13.095673 -4.718070 3.288097 -9.853298 0.681374 -7.381614 -0.642028 0.000003 -0.000001 0.000000 -0.000001 -0.000000 8.207802 -6.751690 -1.599547 -18.786242 10.766177 14.984231 21.739543 10.036268 2.661593 -1.332403 3.423525 -8.486083 -0.448574 0.000007 0.000001 -0.000000 -0.000000 0.000000 
1.593889 101.769371 0.811566 -1.895486 1.490957 -4.990435 -0.000001 10.181564 0.131524 2.075006 -1.313577 2.867261 1.048780 0.249233 5.911329 1.031058 0.763098 5.820029 0.000001 16.740383 -2.049022 0.352882 -0.501951 -2.078691 -0.000003 9.617858 1.684975 -0.271362 -0.261223 -8.221279 0.000000 22.037338 7.501077 -0.000000 -0.000000 -0.000000 -4.569996 11.014884 -2.160841 4.186658 6.000955 9.095255 5.431878 15.108776 57.182484 0.000003 19.321483 0.000030 -12.810867 -9.698992 22.963557 -2.464800 -1.574003 2.681903 18.491287 0.461456 -10.916100 1.284015 -32.757621 3.089018 -2.646259 -1.527808 1.527815 2.008738 -8.430469 1.114698 -1.994591 -1.151581 1.151571 0.000003 -0.000003 0.000003 -9.108293 -0.517883 2.259804 0.339545 -4.671351 7.844267 0.387043 -2.823575 20.566222 -0.193125 -0.216339 13.843940 0.000001 -0.000000 -0.000002 -9.532499 -0.000004 -0.000000 0.912568 -8.769263 15.831736 0.919071 -3.991134 33.400421 0.216475 -1.688832 15.898064 -0.000000 -0.000002 -0.000001 -9.103595 -0.043106 -1.865099 2.555806 -11.673025 26.909205 1.710655 -3.886781 40.215450 -0.157958 0.035277 17.815346 0.000000 0.000000 0.000000 -8.076685 -0.486730 -3.806298 5.576060 -16.029172 36.940621 1.378699 -4.077637 45.645645 -0.727754 -0.247559 22.122739 0.000001 0.000001 -0.000004 4.570400 11.014677 -2.160814 2.950349 -16.883826 -7.437697 5.746318 -7.625256 -75.153412 -0.000007 -25.527603 0.000016 -27.504566 -3.531890 -14.084783 2.466088 -1.576210 2.681695 18.491385 -0.461340 10.916052 1.284015 32.757618 -3.089000 2.647881 -1.528751 1.528755 2.117143 9.311160 -0.358630 1.998940 -1.154101 1.154074 -0.000001 0.000001 -0.000000 9.109305 -0.518017 2.259900 0.455868 5.274641 -13.916748 0.625350 3.370346 -26.482640 0.135282 1.347435 -15.496705 0.000000 0.000000 -0.000001 9.533396 0.000019 0.000002 1.360989 9.461257 -21.948821 1.282893 4.501053 -39.687081 0.322607 1.998917 -17.594373 0.000001 0.000001 0.000000 9.104497 -0.042996 -1.865099 3.074491 11.716591 -33.078046 2.196222 4.307125 -46.662527 0.819690 2.354308 -25.272356 -0.000001 -0.000001 0.000003 8.077791 -0.486889 -3.806302 5.980922 16.492346 -43.077815 1.842709 4.555398 -52.282851 0.758994 3.384029 -26.459574 0.000000 0.000000 -0.000002 -8.207801 -6.751709 -1.599544 -1.693459 -4.810201 9.412013 13.566833 -4.657829 3.281569 -9.899613 0.481219 -7.115913 -0.710158 -0.000002 -0.000001 -0.000000 -0.000001 0.000000 8.207798 -6.751693 -1.599542 -18.428655 10.707302 14.407442 21.659307 10.054140 2.904706 -1.272229 3.598196 -8.280368 -0.424131 -0.000005 -0.000001 -0.000000 -0.000000 0.000000 
